<?xml version="1.0" encoding="UTF-8" standalone="no"?>
<svg xmlns:rdf="http://www.w3.org/1999/02/22-rdf-syntax-ns#" xmlns="http://www.w3.org/2000/svg" height="428px" width="501px" xmlns:cc="http://creativecommons.org/ns#" xmlns:xlink="http://www.w3.org/1999/xlink" xmlns:dc="http://purl.org/dc/elements/1.1/">
<title>Line Fisher; Indonesia</title>
<desc xmlns:ian_image_library="http://ian.umces.edu/imagelibrary/">
      <ian_image_library:title>Line Fisher; Indonesia</ian_image_library:title>
      <ian_image_library:descr>Line Fisher; Indonesia</ian_image_library:descr>
      <ian_image_library:scene>
		<ian_image_library:contains>symbol,vector,illustration,human,industry,fishing,line,fisher,Indonesia,surf,coast,ocean,marine,freshwater,human,person,people,man,male</ian_image_library:contains>
        <ian_image_library:when>2010-03-01</ian_image_library:when> 
	  </ian_image_library:scene>
   </desc>
    <metadata
		id="metadata-iil-d8131d1de7d279247d67fd367dce5a08">
      <rdf:RDF>
      <cc:Work
         rdf:about="">
        <dc:format>image/svg+xml</dc:format>
        <dc:type
           rdf:resource="http://purl.org/dc/dcmitype/StillImage" />
        <cc:license
           rdf:resource="http://creativecommons.org/licenses/by-sa/3.0/" />
        <dc:title>Line Fisher; Indonesia</dc:title>
		<dc:date>2010-03-01</dc:date>
        <dc:creator>
			<cc:Agent>
				<dc:title>Tracey Saxby</dc:title>
			</cc:Agent>	
		</dc:creator>   
		<dc:rights>
          <cc:Agent>
            <dc:title>Tracey Saxby, Integration and Application Network</dc:title>
          </cc:Agent>
        </dc:rights>
        <dc:publisher>
          <cc:Agent>
            <dc:title>Integration and Application Network</dc:title>
          </cc:Agent>
        </dc:publisher>
		<dc:identifier>http://ian.umces.edu/imagelibrary/displayimage-6448.html</dc:identifier>
        <dc:source>http://ian.umces.edu/imagelibrary/displayimage-6448.html</dc:source>
        <dc:language>en-US</dc:language>
        <dc:subject>
          <rdf:Bag>
            <rdf:li>symbol,vector,illustration,human,industry,fishing,line,fisher,Indonesia,surf,coast,ocean,marine,freshwater,human,person,people,man,male</rdf:li>
          </rdf:Bag>
        </dc:subject>
        <dc:coverage></dc:coverage>
        <dc:description>Line Fisher; Indonesia</dc:description>
        <dc:contributor>
          <cc:Agent>
            <dc:title></dc:title>
          </cc:Agent>
        </dc:contributor>
      </cc:Work>
      <cc:License
         rdf:about="http://creativecommons.org/licenses/by-sa/3.0/">
        <cc:permits
           rdf:resource="http://creativecommons.org/ns#Reproduction" />
        <cc:permits
           rdf:resource="http://creativecommons.org/ns#Distribution" />
        <cc:requires
           rdf:resource="http://creativecommons.org/ns#Notice" />
        <cc:requires
           rdf:resource="http://creativecommons.org/ns#Attribution" />
        <cc:permits
           rdf:resource="http://creativecommons.org/ns#DerivativeWorks" />
        <cc:requires
           rdf:resource="http://creativecommons.org/ns#ShareAlike" />
      </cc:License>
    </rdf:RDF>
  </metadata>
	
<defs>
</defs>
<path fill="#775D56" stroke="#22130C" stroke-width="0.5537" d="M41.709,71.38c-2.287,1.146,0.763,7.629,0.763,7.629l26.326,4.958
	c0,0,0.076-16.021-2.217-18.313C64.3,63.362,44.002,70.234,41.709,71.38z"/>
<linearGradient id="ian_symbols_fb6e966f359fc9b4d16bbb6234716b9f" gradientUnits="userSpaceOnUse" x1="82.7524" y1="85.8281" x2="499.4897" y2="85.8281">
	<stop  offset="0.0606" style="stop-color:#523E27"/>
	<stop  offset="1" style="stop-color:#785C3E"/>
</linearGradient>
<path fill="url(#ian_symbols_fb6e966f359fc9b4d16bbb6234716b9f)" stroke="#22130C" stroke-width="0.5537" d="M157.454,99.08c0,0,4.931-1.968,7.094-1.07
	c2.157,0.892,103.866-35.815,133.878-43.882c30.024-8.067,53.42-20.417,120.552-20.735c57.577-0.276,81.054,57.675,80.502,59.227
	c-0.535,1.546-16.907-53.647-77.556-55.674c-51.694,0.519-75.647,6.937-127.553,23.871
	c-51.917,16.929-131.484,45.942-131.484,45.942s-73.565,32.397-77.015,31.489c-3.444-0.908-4.433-4.731-0.935-8.138
	C88.446,126.698,157.454,99.08,157.454,99.08z"/>
<path fill="#907168" stroke="#22130C" stroke-width="0.5537" d="M161.92,96.176c-0.097-1.119-3.044-1.459-5.012-0.654
	c-1.952,0.8-12.998,5.844-15.815,8.516c-2.801,2.682-5.055,7.142-7.472,11.538c-2.417,4.391-9.749,13.501-9.749,13.501l9.359,6.612
	c0,0,2.773-8.516,6.742-9.992c3.396-1.268,14.814-2.274,15.913-3.979c0.778-1.211,0.362-2.254,0.519-2.422
	c1.471-1.557,0.465-2.346,1.039-2.854c0.573-0.508,0.821-0.465,1.384-1.211c0.778-1.038,0.271-1.189,0.52-1.903
	c0.237-0.698,0.681-1.157,1.384-1.211c0.8-0.043,2.812-0.763,3.979-1.039c1.179-0.28,2.941-1.297,3.482-2.536
	c0.503-1.149,1.136-3.627,0.065-3.693c-1.049-0.075-2.979,0.654-3.633,1.125c-0.654,0.459-4.428,1.703-6.142,1.211
	c-1.698-0.497-5.218-3.449-5.98-3.52c-0.773-0.076,4.856-3.833,4.856-3.833l2.941-1.471
	C160.298,98.361,162.028,97.306,161.92,96.176z"/>
<path fill="#907168" stroke="#22130C" stroke-width="0.5537" d="M58.925,386.681c0,0-1.757,14.923-1.757,18.87
	s-3.288,7.029-3.736,9.229c-0.422,2.185-0.654,6.137,1.325,7.894c1.968,1.752,8.57,0.654,8.57,0.654s10.305-1.524,15.566-1.087
	c5.272,0.433,12.738,0.876,16.242,1.087c3.525,0.222,6.369-0.211,8.337-0.654c1.979-0.433,3.092-3.281,3.092-3.281
	s0.211-1.325-0.454-1.758c-0.659-0.454-4.385,0-7.894-0.887c-3.52-0.881-8.559-4.606-11.408-5.926
	c-2.86-1.324-6.148-1.103-8.57-3.071c-2.411-1.968-2.411-4.18-3.514-6.358c-1.093-2.206,0.886-20.205,0.886-20.205L58.925,386.681z"
	/>
<path fill="#907168" stroke="#22130C" stroke-width="0.5537" d="M24.354,371.915c0,0-6.164,7.201-9.592,8.889
	c-3.417,1.665-7.483,0.13-9.554,0.682c-2.098,0.551-4.115,1.681-4.807,4.125c-0.67,2.471,1.59,8.057,1.59,8.057
	s5.704,8.277,7.564,13.024c1.86,4.764,4.644,11.397,5.953,14.523c1.313,3.141,4.185,5.611,6.153,5.877
	c1.995,0.281,5.12-0.298,6.158-0.492c1.044-0.194,1.984-2.098,1.125-3.217c-0.854-1.142-4.438-1.233-5.169-4.645
	c-0.729-3.412-0.897-7.024-0.973-10.063c-0.081-3.022-0.325-5.406,0.362-8.337c0.681-2.931,2.617-6.407,4.061-8.283
	c1.433-1.888,13.533-15.231,13.533-15.231L24.354,371.915z"/>
<linearGradient id="ian_symbols_162c26206d24f764b503744337965560" gradientUnits="userSpaceOnUse" x1="11.7568" y1="301.3193" x2="62.2935" y2="301.3193">
	<stop  offset="0" style="stop-color:#22130C"/>
	<stop  offset="0.4485" style="stop-color:#2D2019"/>
</linearGradient>
<path fill="url(#ian_symbols_162c26206d24f764b503744337965560)" stroke="#22130C" stroke-width="0.5537" d="M33.135,211.504c-0.552,2.19-0.828,4.639-1.649,6.802
	c-0.838,2.2-1.136,4.574-0.838,7.056c0.152,1.254,0.514,2.487,0.795,3.698c0.309,1.379,0.297,2.844,0.567,4.255
	c0.547,2.947,0.682,6.018,1.055,8.992c0.313,2.497,0.048,5.169,0.07,7.71c0.016,2.433-1.065,4.66-1.13,7.077
	c-0.087,2.645-0.281,5.175-0.281,7.861c0,2.649,0.562,5.045,0.562,7.711c-0.01,2.697,0.276,5.417,0.276,8.191
	c0,2.676-1.103,4.806-1.422,7.38c-0.162,1.238-0.038,2.4-0.281,3.617c-0.281,1.384-0.708,2.455-1.13,3.796
	c-0.374,1.249-0.984,2.417-1.471,3.633c-0.573,1.434-1.206,2.947-1.714,4.466c-0.897,2.709-2.498,5.396-2.768,8.268
	c-0.303,3.353,0.086,6.77-0.26,10.127c-0.578,5.612-2.601,10.987-3.974,16.416c-1.362,5.352-2.59,10.77-3.417,16.215
	c-0.379,2.546-1.476,5.077-2.179,7.58c-0.341,1.222-0.746,2.217-0.979,3.455c-0.211,1.136-0.535,2.232-0.795,3.406
	c-0.519,2.341-0.681,4.407,0.287,6.796c0.763,1.871,2.347,3.401,3.19,5.299c1.87,4.244,6.423,6.43,10.181,8.213
	c1.546,0.735,3.292,1.19,4.688,2.131c0.67,0.449,1.027,0.557,1.768,0.757c1.152,0.313,1,0.076,1.968-0.486
	c2.741-1.579,6.267-2.31,9.354-2.325l0.281-1.142l18.405-139.571l-2.266-38.8L33.135,211.504z"/>
<linearGradient id="ian_symbols_cb156bd41d506f341961f237565962d9" gradientUnits="userSpaceOnUse" x1="41.2251" y1="307.4541" x2="96.9941" y2="307.4541">
	<stop  offset="0" style="stop-color:#22130C"/>
	<stop  offset="1" style="stop-color:#3A2D24"/>
</linearGradient>
<path fill="url(#ian_symbols_cb156bd41d506f341961f237565962d9)" stroke="#22130C" stroke-width="0.5537" d="M95.578,225.946c0.049,5.385,0.567,10.927,0.567,16.35
	c0,2.941-0.405,5.742-0.849,8.57c-0.346,2.298-0.524,4.51-0.838,6.791c-0.649,4.79-1.011,9.592-0.589,14.441
	c0.427,4.65,1.222,9.289,2.26,13.874c0.508,2.266,0.865,4.72,0.865,7.078c-0.01,2.784-0.702,5.137-1.205,7.861
	c-0.638,3.515-0.703,6.845-0.779,10.462c-0.038,1.73-0.276,3.412-0.281,5.169c-0.011,1.833,0.416,3.59,0.567,5.385
	c0.459,5.272,1.492,10.847,0.838,16.141c-0.292,2.477-0.271,5.022-0.271,7.58c0,2.812-0.286,5.493-0.286,8.277
	c0,1.952,0.194,4.072-0.222,5.942c-0.486,2.174-0.129,4.077-0.07,6.229c0.07,1.931,0.357,3.677,0.79,5.445
	c0.411,1.648,0.579,3.779-0.497,5.314c-0.86,1.222-2.531,1.757-3.677,2.817c-1.189,1.081-2.249,2.665-2.752,4.044
	c-0.687,1.822-0.914,3.666-1.151,5.591c-0.119,0.968,0.275,1.709,0.157,2.558c-0.136,0.962-1.12,1.871-1.406,2.778
	c-0.416,0.185-0.648,0.498-1.086,0.617c-0.649,0.179-0.536-0.006-1.114-0.017c-0.833-0.016-2.238-0.227-2.92,0.211
	c-0.459,0.297-1.156,1.384-1.551,1.854c-0.579,0.677-1.065,1.449-1.558,2.19c-0.567,0.838-1.103,1.729-1.979,2.195
	c-0.405,0.221-0.958,0.205-1.363,0.41c-0.368,0.184-0.638,0.698-1.038,0.876c-1.681,0.735-3.633,0.422-5.401,1.119
	c-1.79,0.703-3.931,0.211-6.001,0.222c-0.465,0-0.968,0.06-1.417,0.006c-0.324-0.027-0.546-0.324-0.865-0.324
	c-0.281,0-0.265,0.308-0.536,0.324c-1.06,0.075-2.071,0.205-3.136,0.329c-1.357,0.174-1.909,0.368-3.114-0.346
	c-0.779-0.46-1.433-1.055-2.249-1.411c-1.114-0.476-4.212-1.654-4.304-3.061c-1.535-0.232-3.704-2.53-3.92-4.012
	c-0.157-0.957-0.157-2.449,0-3.401c0.167-1.054,0.865-1.681,0.849-2.827c-0.027-1.963-2.125-3.693-2.617-5.666
	c-0.611-2.477,0.297-4.71,0.86-7.078c1.184-4.984,2.893-10.029,3.174-15.291c0.314-5.807,1.444-11.641,1.417-17.491
	c-0.032-6.152,1.417-11.737,3.125-17.625c0.66-2.282,1.644-4.607,1.687-7.051c0.054-2.845,0-5.802,0.297-8.517
	c0.162-1.459-0.297-2.957-0.297-4.46c0-1.839,0.13-3.634,0.352-5.439c0.341-2.785,0.952-5.488,1.287-8.213
	c0.297-2.434,0.352-4.889,0.352-7.37c0-1.124-0.043-2.254,0-3.396c0.043-1.313,0.595-2.416,0.779-3.677
	c0.308-2.103,0.027-9.597,0.768-11.321c0.812-1.903,0.644-3.855,0.897-5.953c0.168-1.39,0.876-4.736-0.059-5.942
	c0,0-1.038-6.563-2.325-9.976c-1.93-5.093-4.433-8.234-4.915-12.674c-0.811-7.423,2.39-22.373,2.39-22.373l42.665,0.287
	L95.578,225.946z"/>
<linearGradient id="ian_symbols_1ba2d3a53b185b14cd7100b62c39bd70" gradientUnits="userSpaceOnUse" x1="21.5552" y1="150.5815" x2="95.4932" y2="150.5815">
	<stop  offset="0" style="stop-color:#071829"/>
	<stop  offset="0.9758" style="stop-color:#023E56"/>
</linearGradient>
<path fill="url(#ian_symbols_1ba2d3a53b185b14cd7100b62c39bd70)" stroke="#22130C" stroke-width="0.5537" d="M29.609,78.799c0,0-5.342,10.3-7.624,16.021
	c-2.292,5.72,5.342,90.435,4.958,96.155c-0.384,5.726-3.055,15.269-1.908,19.843c1.146,4.574,4.201,7.634,9.159,10.678
	c4.958,3.061,42.73-3.044,49.607-1.908c6.861,1.146,10.3-1.903,11.446-4.196c1.136-2.292-1.914-6.482-4.207-13.733
	c-2.282-7.251-1.135-38.156-1.135-38.156s-6.115-44.412-10.306-52.425c-4.196-8.007-2.974-20.221-12.738-25.488
	C57.081,80.329,29.609,78.799,29.609,78.799z"/>
<linearGradient id="ian_symbols_177ed1fab36dd114ed27b3966d7afbf0" gradientUnits="userSpaceOnUse" x1="51.731" y1="141.146" x2="129.9303" y2="115.7375">
	<stop  offset="0" style="stop-color:#071829"/>
	<stop  offset="0.5455" style="stop-color:#023E56"/>
	<stop  offset="1" style="stop-color:#044760"/>
</linearGradient>
<path fill="url(#ian_symbols_177ed1fab36dd114ed27b3966d7afbf0)" stroke="#22130C" stroke-width="0.5537" d="M42.591,112.749c-1.147-6.483,4.195-16.021,8.78-19.076
	c4.563-3.049,13.344-0.762,13.344-0.762c2.455,1.39,4.358,2.962,6.58,4.86c1.06,0.903,1.86,1.531,2.666,2.677
	c0.876,1.233,1.238,2.189,1.903,3.45c1.368,2.546,2.952,4.904,3.742,7.699c0.79,2.812,1.682,4.509,3.91,6.401
	c1.027,0.881,2.135,1.444,3.044,2.374c0.859,0.887-0.314,2.439,0.292,3.45c2.255,3.785,0.465,1.979,1.909,6.866
	c0.422,1.455,3.055,2.185,3.05,3.812c0,1.855-0.757,7.618,1.146,8.018c2.806,0.584,6.662-3.952,8.77-5.342
	c1.092-0.725,2.925-2.573,4.201-3.055c1.4-0.53,2.758-2.498,4.195-3.049c2.985-1.157,3.937-3.931,6.121-6.132
	c1.941-1.962,4.396-3.541,6.85-4.558c1.189-0.492,3.228-0.67,4.59-0.384c1.13,0.232,5.358,4.72,5.732,6.499
	c0.367,1.697,0.622,3.887,0.367,5.72c-0.205,1.433-0.151,3.071-0.47,4.575c-0.292,1.378-1.033,2.665-1.357,3.898
	c-0.433,1.649-0.433,1.984-1.703,3.25c-0.833,0.833-1.59,1.741-2.471,2.498c-3.915,3.331-8.619,4.779-12.312,8.586
	c-2.146,2.206-4.228,4.46-5.629,7.332c-1.681,3.412-4.677,3.931-7.429,6.099c-1.265,0.989-2.471,2.06-3.747,3.055
	c-1.363,1.087-2.293,1.757-3.801,2.563c-1.454,0.762-2.758,1.368-4.179,2.039c-0.319,0.151-1.509,0.687-1.838,0.859
	c-0.476,0.254-4.299-1.503-5.532-2.692c-1.459-1.417-2.493-2.779-3.633-4.374c-1.255-1.763-2.866-3.142-4.369-4.769
	c-1.216-1.325-2.941-2.709-4.018-3.985c-1.395-1.671-2.519-3.396-3.606-5.196c-0.486-0.795-1.108-1.503-1.454-2.352
	c-0.433-1.087-0.303-2.352-0.757-3.482c-1.52-3.844-5.44-6.775-7.63-10.279C57.849,139.842,43.726,119.237,42.591,112.749z"/>
<linearGradient id="ian_symbols_130e660ce1b768b4653f8bf89a393cc5" gradientUnits="userSpaceOnUse" x1="18.3516" y1="79.7529" x2="60.3628" y2="79.7529">
	<stop  offset="0.0056" style="stop-color:#4C4D54"/>
	<stop  offset="0.9944" style="stop-color:#A2A2AD"/>
</linearGradient>
<path fill="url(#ian_symbols_130e660ce1b768b4653f8bf89a393cc5)" stroke="#22130C" stroke-width="0.5537" d="M18.368,76.355c0.179-1.13,1.114-1.498,1.844-2.292
	c0.687-0.747,1.373-0.892,2.292-1.53c1.146-0.795,2.52-4.277,4.201-3.65c0.8,0.298,2.801,0.476,3.082,1.104
	c0.427,0.968,7.559,1.081,8.413,1.757c1.617,1.282,5.731,4.434,7.088,4.39c1.2-0.027,4.628-0.308,5.926-0.102
	c0.903,0.146,1.768,0.843,2.66,1.162c1.774,0.665,5.143,0,6.488,1.53c0,0-26.769,11.673-33.506,11.971
	C20.125,90.991,18.146,76.458,18.368,76.355z"/>
<path fill="#939598" d="M419.205,280.426c-0.064,0-0.135-0.006-0.194-0.032c-0.265-0.119-0.389-0.417-0.281-0.682L499.01,92.418
	c0.113-0.254,0.427-0.373,0.67-0.276c0.265,0.114,0.396,0.417,0.276,0.682l-80.275,187.288
	C419.594,280.317,419.41,280.426,419.205,280.426L419.205,280.426z"/>
<linearGradient id="ian_symbols_f13fc7a75ec83244e94c4b47c6649e99" gradientUnits="userSpaceOnUse" x1="14.6563" y1="96.4854" x2="77.7217" y2="96.4854">
	<stop  offset="0" style="stop-color:#071829"/>
	<stop  offset="0.5455" style="stop-color:#023E56"/>
	<stop  offset="1" style="stop-color:#044760"/>
</linearGradient>
<path fill="url(#ian_symbols_f13fc7a75ec83244e94c4b47c6649e99)" stroke="#22130C" stroke-width="0.5537" d="M15.497,109.704c-0.005,3.158-0.346,3.012,0,6.104
	c1.114,0.378,3.168,1.747,4.19,1.151c1.374-0.794,2.985-1.773,4.109-3.141c1.228-1.466,2.266-3.174,3.261-4.796
	c0.762-1.265,2.06-4.374,3.623-4.736c0.584-2.644,4.049-2.158,5.715-3.839c1.844-1.849,3.412-4.142,5.05-6.315
	c2.574-3.434,6.64-7.073,10.679-8.083c2.158-0.546,5.223-0.984,7.337-0.476c2.401,0.567,4.336,1.784,6.494,2.665
	c2.276,0.936,3.828,1.79,5.715,3.423c0.86,0.741,1.773,1.373,2.676,2.011c0.865,0.622,2.158,1.801,3.292,1.471
	c0.563-2.779-1.844-5.207-2.892-7.591c-1.022-2.336-2.471-4.158-4.596-5.807c-1.06-0.817-1.638-1.801-2.871-2.471
	c-1.238-0.682-2.579-1.054-4.093-1.249c-1.422-0.194-2.639,0.552-3.893,0.687c-1.546,0.162-3.39,0.417-4.877,0.487
	c-1.568,0.065-2.152-0.903-3.417-1.189c-1.563-0.346-2.661,0.444-3.926,1.07c-2.189,1.087-4.569,2.46-6.477,3.817
	c-1.292,0.909-2.547,0.876-4.12,1.228c-1.568,0.362-3.31,1.303-4.958,1.152c-2.52-0.238-5.261-1.233-7.543-2.369
	c-2.844-1.427-5.488-3.72-5.401-7.045c-1.433,2.157,0,6.186-0.4,8.667c-0.184,1.173-3.173,6.05-3.438,7.24
	C14.351,93.511,15.497,107.309,15.497,109.704z"/>
<linearGradient id="ian_symbols_c1f2191fb47b1574a9f639b7d4a3cd81" gradientUnits="userSpaceOnUse" x1="22.2959" y1="37.2637" x2="111.6616" y2="37.2637">
	<stop  offset="0" style="stop-color:#645142"/>
	<stop  offset="0.4303" style="stop-color:#927555"/>
	<stop  offset="1" style="stop-color:#DDC09C"/>
</linearGradient>
<path fill="url(#ian_symbols_c1f2191fb47b1574a9f639b7d4a3cd81)" d="M44.38,9.818c3.931-2.758,38.378-9.824,47.672-9.533c9.299,0.287,11.549,1.79,17.48,11.917
	c5.937,10.122,0.07,36.637-25.429,50.695c-25.493,14.068-36.793,11.943-48.391,9.797c-19.221-3.304-13.387-25.239-9.154-33.587
	C30.799,30.77,40.45,12.57,44.38,9.818z"/>
<path fill="none" stroke="#22130C" stroke-width="0.5537" d="M44.38,9.818c3.931-2.758,38.378-9.824,47.672-9.533
	c9.299,0.287,11.549,1.79,17.48,11.917c5.937,10.122,0.07,36.637-25.429,50.695c-25.493,14.068-36.793,11.943-48.391,9.797
	c-19.221-3.304-13.387-25.239-9.154-33.587C30.799,30.77,40.45,12.57,44.38,9.818z"/>
</svg>
