<svg width="44" height="44" xmlns="http://www.w3.org/2000/svg" xmlns:xlink="http://www.w3.org/1999/xlink">
 <!-- Created with SVG-edit - http://svg-edit.googlecode.com/ -->
 <defs>
  <symbol id="svg_5" height="137" width="137">
   <title>Cool smiley</title>
   <path id="svg_4" d="m32.186821,97.716743q36.315903,24.940758 72.545853,0m-64.675423,-49.25576c0,-3.8554 3.125259,-6.980789 6.980679,-6.980789c3.854492,0 6.978722,3.125389 6.978722,6.980789c0,3.853458 -3.124229,6.978668 -6.978722,6.978668c-3.855419,0 -6.980679,-3.12521 -6.980679,-6.978668m42.930466,0c0,-3.8554 3.12529,-6.980789 6.979637,-6.980789c3.854401,0 6.979706,3.125389 6.979706,6.980789c0,3.853458 -3.125305,6.978668 -6.979706,6.978668c-3.854347,0 -6.979637,-3.12521 -6.979637,-6.978668m-81.485958,20.036003l0,0c0,-37.001972 29.996789,-66.99892 67.000949,-66.99892c37.003029,0 66.999977,29.99695 66.999977,66.99892c0,37.004089 -29.996948,67.000999 -66.999977,67.000999c-37.004158,0 -67.000949,-29.996918 -67.000949,-67.000999zm0,0l0,0c0,-37.001972 29.996789,-66.99892 67.000949,-66.99892c37.003029,0 66.999977,29.99695 66.999977,66.99892c0,37.004089 -29.996948,67.000999 -66.999977,67.000999c-37.004158,0 -67.000949,-29.996918 -67.000949,-67.000999z" stroke-width="3" stroke="#000000" fill="url(#svg_1)"/>
   <path fill="#000000" stroke-width="3" d="m23.84005,41.034451l17.570518,0l5.429371,-19.67914l5.429409,19.67914l17.570602,0l-14.214878,12.162422l5.429817,19.679386l-14.214947,-12.162807l-14.214893,12.162807l5.429913,-19.679386l-14.214911,-12.162422l0,0l-0.000002,0z" id="svg_3"/>
   <path fill="#000000" stroke-width="3" d="m65.84005,41.034451l17.570518,0l5.429375,-19.67914l5.429405,19.67914l17.570602,0l-14.214874,12.162422l5.429825,19.679386l-14.214958,-12.162796l-14.214905,12.162796l5.429924,-19.679386l-14.214912,-12.162422l0,0z" id="svg_2"/>
   <defs>
    <linearGradient id="svg_1" x1="0.44531" y1="0.94922" x2="0.46484" y2="0.25391">
     <stop offset="0" stop-color="#ff0000"/>
     <stop offset="1" stop-color="#ffff00"/>
    </linearGradient>
   </defs>
  </symbol>
 </defs>
 <g>
  <title>Layer 1</title>
  <use transform="matrix(1.16788 0 0 1.16788 0 0)" xlink:href="#svg_5" id="svg_6"/>
 </g>
</svg>